<?xml version="1.0" encoding="UTF-8"?>
<svg id="Capa_2" data-name="Capa 2" xmlns="http://www.w3.org/2000/svg" viewBox="0 0 568.91 136.75">
  <defs>
    <style>
      .cls-1 {
        fill: none;
        stroke: #fff;
        stroke-miterlimit: 10;
        stroke-width: 3.13px;
      }

      .cls-2 {
        font-family: Montserrat-Medium, Montserrat;
        font-weight: 500;
      }

      .cls-2, .cls-3 {
        font-size: 37.55px;
      }

      .cls-2, .cls-3, .cls-4 {
        fill: #fff;
      }

      .cls-3 {
        font-family: Montserrat-Bold, Montserrat;
        font-weight: 700;
      }

      .cls-5 {
        letter-spacing: 0em;
      }

      .cls-6 {
        letter-spacing: -.09em;
      }

      .cls-7 {
        letter-spacing: -.09em;
      }

      .cls-8 {
        letter-spacing: -.02em;
      }

      .cls-9 {
        letter-spacing: -.02em;
      }

      .cls-10 {
        letter-spacing: -.02em;
      }

      .cls-11 {
        letter-spacing: 0em;
      }

      .cls-12 {
        letter-spacing: 0em;
      }

      .cls-13 {
        letter-spacing: 0em;
      }

      .cls-14 {
        letter-spacing: 0em;
      }

      .cls-15 {
        letter-spacing: 0em;
      }

      .cls-16 {
        letter-spacing: -.01em;
      }

      .cls-17 {
        letter-spacing: 0em;
      }

      .cls-18 {
        letter-spacing: -.01em;
      }

      .cls-19 {
        letter-spacing: 0em;
      }

      .cls-20 {
        letter-spacing: 0em;
      }

      .cls-21 {
        letter-spacing: 0em;
      }

      .cls-22 {
        letter-spacing: .01em;
      }
    </style>
  </defs>
  <g id="Capa_1" data-name="Capa 1">
    <g>
      <text class="cls-3" transform="translate(2.7 126.76)"><tspan class="cls-17" x="0" y="0">I</tspan><tspan class="cls-11" x="11.97" y="0">N</tspan><tspan class="cls-13" x="42.06" y="0">M</tspan><tspan class="cls-12" x="77.68" y="0">O</tspan><tspan class="cls-15" x="109.11" y="0">B</tspan><tspan class="cls-17" x="137.7" y="0">I</tspan><tspan class="cls-8" x="149.67" y="0">L</tspan><tspan class="cls-19" x="171.79" y="0">I</tspan><tspan class="cls-14" x="183.83" y="0">A</tspan><tspan class="cls-20" x="212.39" y="0">R</tspan><tspan class="cls-21" x="239.75" y="0">I</tspan><tspan x="251.79" y="0">A</tspan></text>
      <g>
        <path class="cls-4" d="M13.31,34.13c-.36,29.81,17.45,37.31,26.45,37.31s13.86-3.19,23.43-13.87v4.88c-8.07,10.3-15.74,14.25-27.37,14.25C15.01,76.7,0,62.25,0,42.19S14.62,6.37,33.39,6.37c15.37,0,29.63,12.38,28.68,27.76H13.31ZM49.51,30.94c.57-14.64-9.38-20.64-17.82-20.64-11.05,0-17.63,8.27-18.37,20.64h36.2Z"/>
        <path class="cls-4" d="M230.12,34.13c-.36,29.81,17.44,37.31,26.45,37.31s13.87-3.19,23.44-13.87v4.88c-8.06,10.3-15.75,14.25-27.38,14.25-20.81,0-35.81-14.44-35.81-34.51s14.61-35.82,33.38-35.82c15.37,0,29.63,12.38,28.69,27.76h-48.77ZM266.31,30.94c.57-14.64-9.37-20.64-17.8-20.64-11.07,0-17.64,8.27-18.39,20.64h36.2Z"/>
        <path class="cls-4" d="M358.39,60.19c0,8.62,1.88,11.25,11.26,11.25v3.19h-35.45v-3.19c8.99,0,11.44-2.06,11.44-8.24V28.5c0-10.67-7.69-15.19-14.79-15.19-6.59,0-12.41,4.12-18.97,12.93v32.45c0,10.12,1.32,12.75,11.27,12.75v3.19h-35.08v-3.19c8.83,0,11.07-.75,11.07-12.75V21.37c0-8.06-2.07-9.75-11.07-9.75v-3.19l20.63-2.06h3.18v13.31c7.88-9,15.57-13.31,24.01-13.31,11.07,0,22.5,7.88,22.5,23.82v30Z"/>
        <path class="cls-4" d="M439.42,29.83h-3.18c-2.82-12-11.27-19.71-22.33-19.71-13.13,0-22.31,11.25-22.31,27.56,0,18.2,11.44,33.41,24.93,33.41,8.07,0,17.81-4.32,24.76-13.88v4.86c-7.12,9.75-17.25,14.63-29.26,14.63-19.68,0-33.37-13.69-33.37-33.56s15.38-36.77,34.31-36.77c9.95,0,15.38,3.76,18.75,3.76,1.71,0,3.38-1.31,4.52-3.76h3.18v23.46Z"/>
        <path class="cls-4" d="M477.58,62.25c0,6.56,1.47,9.19,9.59,9.19v3.19h-31.53v-3.19c8.78,0,10.9-1.31,10.9-9.19V21.56c0-9.2-2.43-9.94-10.9-9.94v-3.19l19.18-2.06h2.76v55.89Z"/>
        <path class="cls-4" d="M550.12,59.26c0,7.68.75,10.32,3.75,10.32,2.06,0,3.01-1.71,4.5-6.38h3.19c-.56,8.24-5.45,13.5-12.95,13.5-5.63,0-8.99-2.82-11.24-9.38-6.56,7.12-10.88,9.38-17.82,9.38-10.31,0-18.95-7.89-18.95-17.63,0-18.95,25.89-18.19,36.77-24.57v-4.88c0-9.38-5.45-16.13-14.84-16.13-7.5,0-14.8,4.69-17.63,14.25l-3.37-.93c2.82-12.38,12.55-20.45,24.57-20.45,11.07,0,24,6.38,24,24.39v28.5ZM537.39,38.63c-12.59,5.45-23.82,5.25-23.82,18.75,0,6.75,4.68,12.2,10.11,12.2,3.95,0,11.09-2.82,13.71-8.44v-22.51Z"/>
        <path class="cls-4" d="M126.1,27.15c-1.68-11.07-11.08-16.7-21.19-16.7-8.44,0-12.55,4.16-14.22,9-8.04,18.77,41.43,17.16,44.34,36.87,2.58,14.56-11.82,20.71-26.52,20.71-9.4,0-17.59-4.86-21.68-4.86-3.13,0-5.31,2.05-5.54,4.49h-4.11v-22.7h4.11c3.61,13.87,16.86,19.32,27.45,19.32,8.44,0,14.94-4.87,14.94-11.44,0-18.56-45.28-13.49-45.28-36.01,0-10.31,11.79-19.14,26.02-19.14,8.91,0,11.57,3.19,17.33,3.19,2.19,0,3.86-.94,5.07-3.19h4.09v20.46h-4.82Z"/>
        <path class="cls-4" d="M195.94,27.79c-1.68-11.08-11.08-16.69-21.2-16.69-8.43,0-12.54,4.16-14.21,9-8.03,18.77,41.43,17.16,44.34,36.87,2.59,14.55-11.83,20.71-26.52,20.71-9.4,0-17.57-4.86-21.67-4.86-3.14,0-5.31,2.05-5.56,4.49h-4.09v-22.7h4.09c3.63,13.88,16.87,19.32,27.47,19.32,8.43,0,14.94-4.87,14.94-11.44,0-18.57-45.28-13.51-45.28-36.01,0-10.32,11.79-19.12,26.01-19.12,8.91,0,11.58,3.19,17.35,3.19,2.17,0,3.84-.95,5.05-3.19h4.11v20.44h-4.83Z"/>
        <g>
          <path class="cls-4" d="M558.27,11.19V2.87h3.54c.88,0,1.52.05,1.94.21.39.16.72.42.97.8.27.39.37.84.37,1.32,0,.62-.2,1.13-.57,1.54-.33.4-.9.68-1.61.77.34.22.64.45.88.7.24.26.55.7.96,1.33l1.01,1.64h-2l-1.22-1.81c-.42-.65-.72-1.05-.88-1.22-.16-.18-.35-.29-.5-.35-.19-.06-.48-.1-.86-.1h-.35v3.47h-1.67ZM559.95,6.39h1.25c.79,0,1.3-.04,1.52-.11.19-.07.35-.19.47-.36.12-.15.17-.36.17-.61,0-.28-.09-.51-.24-.69-.14-.15-.35-.27-.62-.32-.16-.03-.53-.03-1.22-.03h-1.33v2.11Z"/>
          <path class="cls-4" d="M568.91,7.34c0,4.05-3.27,7.36-7.34,7.36s-7.34-3.3-7.34-7.36,3.27-7.34,7.34-7.34,7.34,3.29,7.34,7.34M561.57,13.56c3.41,0,6.23-2.78,6.23-6.22s-2.82-6.21-6.23-6.21-6.23,2.8-6.23,6.21,2.79,6.22,6.23,6.22"/>
        </g>
      </g>
      <text class="cls-2" transform="translate(297.08 126.76)"><tspan x="0" y="0"> </tspan><tspan class="cls-9" x="10.1" y="0">R</tspan><tspan class="cls-22" x="36.81" y="0">E</tspan><tspan class="cls-16" x="62.43" y="0">A</tspan><tspan x="89.44" y="0">L </tspan><tspan class="cls-18" x="121.84" y="0">E</tspan><tspan class="cls-5" x="146.62" y="0">S</tspan><tspan class="cls-7" x="170.01" y="0">T</tspan><tspan class="cls-6" x="188.8" y="0">A</tspan><tspan class="cls-10" x="213.07" y="0">T</tspan><tspan x="234.52" y="0">E</tspan></text>
      <line class="cls-1" x1="297.11" y1="96.56" x2="297.11" y2="132.49"/>
    </g>
  </g>
</svg>